<svg xmlns="http://www.w3.org/2000/svg" version="1.1" viewBox="-5.0 -10.0 110.0 135.0">
 <path d="m36.945 32.785v-21.914c0-1.9219 0.78516-3.6719 2.0547-4.9375 1.2734-1.2734 3.0234-2.0586 4.9453-2.0586h38.137c1.9219 0 3.6719 0.78516 4.9375 2.0547 1.2734 1.2734 2.0586 3.0234 2.0586 4.9453v78.258c0 1.9258-0.78906 3.6758-2.0547 4.9453-1.2656 1.2656-3.0195 2.0547-4.9453 2.0547h-70.16c-0.55078 0-1-0.44922-1-1v-2.6797c0-0.55078 0.44922-1 1-1h1.2461v-1.6797c0-0.55078 0.44922-1 1-1h2.5703v-1.6797c0-0.55078 0.44922-1 1-1h0.48438v-14.664h-0.48438c-0.55078 0-1-0.44922-1-1v-1.6797h-1.3945c-0.55078 0-1-0.44922-1-1v-1.6797h-1.2852c-0.55078 0-1-0.44922-1-1 0-0.37891 0.21094-0.70703 0.51953-0.87891l14.324-9.3164c-0.42969-0.91016-0.77344-1.8633-1.0234-2.8516-0.31641-1.2578-0.48828-2.5703-0.48828-3.918 0-4.3945 1.7852-8.3789 4.6641-11.258 1.8867-1.8867 4.25-3.3008 6.8906-4.0547zm-6.0586 19.492c-0.21094-0.51953-0.37891-1.0586-0.50781-1.6094l-0.011718-0.046875c-0.18359-0.81641-0.28516-1.6602-0.28516-2.5195 0-3.1016 1.2578-5.9102 3.2891-7.9453 2.0312-2.0312 4.8398-3.2891 7.9453-3.2891 3.1016 0 5.9102 1.2578 7.9453 3.2891 2.0312 2.0312 3.2891 4.8398 3.2891 7.9453 0 2.8594-1.0703 5.4727-2.832 7.457-1.2539 1.4141-2.8672 2.5117-4.6914 3.1484l2.7031 1.7578c2.1836-1.1367 4.0352-2.8398 5.3516-4.9141 1.3672-2.1484 2.1562-4.707 2.1562-7.4492 0-3.8438-1.5586-7.3242-4.0781-9.8438-2.5195-2.5195-6-4.0781-9.8438-4.0781s-7.3242 1.5586-9.8438 4.0781c-2.5195 2.5195-4.0781 6-4.0781 9.8438 0 1.1875 0.14844 2.3398 0.42578 3.4336 0.19531 0.77344 0.45703 1.5234 0.77344 2.2344zm11.867 4.9453c2.1641-0.33594 4.082-1.4258 5.4727-2.9922 1.4453-1.6289 2.3242-3.7773 2.3242-6.1289 0-2.5508-1.0352-4.8594-2.7031-6.5273-1.6719-1.6719-3.9805-2.7031-6.5273-2.7031-2.5508 0-4.8594 1.0352-6.5273 2.7031-1.6719 1.6719-2.7031 3.9805-2.7031 6.5273 0 0.71875 0.082031 1.418 0.23047 2.0742l0.011719 0.039063c0.078125 0.32422 0.17188 0.64844 0.28125 0.96094 0.32031-0.14453 0.69141-0.10938 0.97266 0.082031l9.1758 5.9688zm-2.4375-15.707c0-0.55078 0.44922-1 1-1 0.55078 0 1 0.44922 1 1v0.23828c0.55859 0.16797 1.0586 0.47266 1.4609 0.87109 0.62891 0.62891 1.0195 1.5 1.0195 2.4609 0 0.55078-0.44922 1-1 1s-1-0.44922-1-1c0-0.41016-0.16797-0.78125-0.43359-1.0469l-0.042969-0.042968v3.5039c1.3086 0.72266 2.4805 1.5859 2.4805 3.6055 0 0.96094-0.39062 1.832-1.0195 2.4609-0.40234 0.40234-0.90234 0.70703-1.4609 0.87109v0.23438c0 0.55078-0.44922 1-1 1-0.55078 0-1-0.44922-1-1v-0.23438c-0.55859-0.16797-1.0586-0.47266-1.4609-0.875-0.62891-0.62891-1.0195-1.5-1.0195-2.4609 0-0.55078 0.44922-1 1-1 0.55078 0 1 0.44922 1 1 0 0.41016 0.16797 0.78125 0.43359 1.0469l0.046874 0.042968v-3.5039c-1.3086-0.72266-2.4805-1.5859-2.4805-3.6055 0-0.96094 0.39062-1.832 1.0195-2.4609 0.40234-0.40234 0.90234-0.70703 1.4609-0.87109v-0.23828zm2 8.4414v2.2422l0.042969-0.042969c0.26562-0.26562 0.43359-0.63672 0.43359-1.0469 0-0.48047-0.1875-0.84766-0.47656-1.1523zm-2-3.7148v-2.2422l-0.046875 0.042969c-0.26562 0.26562-0.43359 0.63672-0.43359 1.0469 0 0.47656 0.1875 0.84766 0.48047 1.1523zm9.2969 15.445 3.9023 2.5391c0.46094 0.30078 0.59375 0.91797 0.29297 1.3789-0.19141 0.29297-0.51172 0.45312-0.83594 0.45312h-1.2852v1.6836c0 0.55078-0.44922 1-1 1h-1.3945v1.6797c0 0.55078-0.44922 1-1 1h-0.48438v14.664h0.48438c0.55078 0 1 0.44922 1 1v1.6797h2.5703c0.55078 0 1 0.44922 1 1v1.6797h1.25c0.55078 0 1 0.44922 1 1v1.6797h26.969c1.3711 0 2.625-0.5625 3.5273-1.4688 0.90625-0.90625 1.4688-2.1562 1.4688-3.5273v-78.258c0-1.375-0.5625-2.6289-1.4648-3.5273-0.90625-0.90625-2.1562-1.4688-3.5352-1.4688h-7.5508l-0.19141 0.44922c-0.39844 0.94531-1.0391 1.7109-1.8359 2.2422-0.80078 0.53125-1.7539 0.82422-2.7734 0.82422h-13.43c-1.0195 0-1.9766-0.29688-2.7773-0.82422-0.79688-0.52734-1.4375-1.2969-1.8359-2.2383l-0.19141-0.44922h-7.5508c-1.375 0-2.6289 0.5625-3.5273 1.4648-0.90625 0.90625-1.4688 2.1562-1.4688 3.5352v21.48c0.77344-0.11719 1.5625-0.17578 2.3672-0.17578 4.3984 0 8.3789 1.7852 11.258 4.6641 2.8789 2.8789 4.6641 6.8633 4.6641 11.258 0 3.1328-0.91016 6.0586-2.4727 8.5195-1.3047 2.0547-3.0703 3.793-5.1523 5.0664zm-21.973-28.684c0.50391 0.22266 0.72656 0.8125 0.50391 1.3164-0.22266 0.50391-0.8125 0.72656-1.3164 0.50391l-1.9336-0.85938c-0.50391-0.22266-0.72656-0.8125-0.50391-1.3164 0.22266-0.50391 0.8125-0.72656 1.3164-0.50391zm5.5625-2.8047c0.054687 0.54688-0.34375 1.0391-0.89062 1.0938-0.54688 0.054687-1.0391-0.34375-1.0938-0.89062l-0.22266-2.1055c-0.054688-0.54688 0.34375-1.0391 0.89062-1.0938s1.0391 0.34375 1.0938 0.89062zm-3.1562 0.65625c0.32422 0.44531 0.22266 1.0703-0.22266 1.3945-0.44531 0.32422-1.0703 0.22266-1.3945-0.22266l-1.2422-1.7148c-0.32422-0.44531-0.22266-1.0703 0.22266-1.3945 0.44531-0.32422 1.0703-0.22266 1.3945 0.22266zm23.066 62.594h-40.188v0.67969h40.188zm-28.18-4.6836h3.9922v-1.6797c0-0.55078 0.44922-1 1-1h0.48438v-14.664h-0.48438c-0.55078 0-1-0.44922-1-1v-1.6797h-3.9922v1.6797c0 0.55078-0.44922 1-1 1h-0.48438v14.664h0.48438c0.55078 0 1 0.44922 1 1zm12.18 0h3.9922v-1.6797c0-0.55078 0.44922-1 1-1h0.48438v-14.664h-0.48438c-0.55078 0-1-0.44922-1-1v-1.6797h-3.9922v1.6797c0 0.55078-0.44922 1-1 1h-0.48047v14.664h0.48047c0.55078 0 1 0.44922 1 1zm13.75 2h-35.691v0.67969h35.691zm-6.2734-4.6797h1.2188v-14.664h-1.2188zm2.7031 2h-4.1875v0.67969h4.1875zm-14.883-2h1.2188v-14.664h-1.2188zm2.7031 2h-4.1875v0.67969h4.1875zm-14.883-2h1.2188v-14.664h-1.2188zm2.7031 2h-4.1875v0.67969h4.1875zm20.176-19.344v0.67969h4.1875v-0.67969zm-12.18 0v0.67969h4.1875v-0.67969zm-12.184 0v0.67969h4.1875v-0.67969zm30.945-2.6797h-33.34v0.67969h33.34zm-16.672-12.793c-5.5312 3.5859-11.062 7.1953-16.59 10.789h33.18c-5.5273-3.5977-11.059-7.1953-16.59-10.789zm23.961 32.367h12.074c0.84766 0 1.6172 0.34766 2.1758 0.90625 0.5625 0.55469 0.90625 1.3281 0.90625 2.1758 0 0.84375-0.34766 1.6172-0.90625 2.1758-0.5625 0.5625-1.332 0.91016-2.1797 0.91016h-12.074c-0.84766 0-1.6211-0.34766-2.1797-0.90625-0.55859-0.5625-0.90625-1.332-0.90625-2.1797s0.34766-1.6211 0.90625-2.1797c0.55859-0.55859 1.332-0.90625 2.1797-0.90625zm12.074 2h-12.074c-0.29688 0-0.56641 0.12109-0.76562 0.32031-0.19531 0.19531-0.32031 0.46875-0.32031 0.76562s0.12109 0.57031 0.3125 0.76562c0.19922 0.19531 0.47266 0.32031 0.76953 0.32031h12.074c0.29688 0 0.57031-0.12109 0.76562-0.3125 0.19922-0.19531 0.32031-0.46875 0.32031-0.76953 0-0.29687-0.12109-0.56641-0.32031-0.76562-0.19141-0.19922-0.46484-0.32031-0.76562-0.32031zm3.2969-81.766h-18.668c0.23438 0.42578 0.55859 0.77344 0.94531 1.0273 0.47266 0.3125 1.0469 0.48828 1.6758 0.48828h13.43c0.625 0 1.2031-0.17188 1.6719-0.48828 0.38281-0.25391 0.70703-0.60547 0.94531-1.0273z"/>
<text x="0.0" y="117.5" font-size="5.0" font-weight="bold" font-family="Arbeit Regular, Helvetica, Arial-Unicode, Arial, Sans-serif" fill="#000000">Created by seniman</text><text x="0.0" y="122.5" font-size="5.0" font-weight="bold" font-family="Arbeit Regular, Helvetica, Arial-Unicode, Arial, Sans-serif" fill="#000000">from Noun Project</text></svg>